PathFileType	4	(X/Y/Z)	C:/Users/opensim2020/Desktop/walking_exp_matlab/subject06_walking11_run.trc																																																																																																																																								
DataRate	CameraRate	NumFrames	NumMarkers	Units	OrigDataRate	OrigDataStartFrame	OrigNumFrames																																																																																																																																				
100	100	5	46	mm	100	186	106																																																																																																																																				
Frame#	Time	LKNE			RKNE			RFRM			RWRA			RWRB			RELB			RUPA			RSHO			LWRA			RFIN			RFHD			CLAV			RASI			RTHI			LSHO			LTHI			RBHD			C7			LTIB			LANK			LTOE			LBHD			RTIB			RBAK			LHEE			RANK			STRN			RHEE			RTOE			T10			LUPA			LFHD			LPSI			RPSI			LASI			LFRM			LWRB			LFIN			LELB			*39			*40			*41			*42			*43			*44			*45		
		X1	Y1	Z1	X2	Y2	Z2	X3	Y3	Z3	X4	Y4	Z4	X5	Y5	Z5	X6	Y6	Z6	X7	Y7	Z7	X8	Y8	Z8	X9	Y9	Z9	X10	Y10	Z10	X11	Y11	Z11	X12	Y12	Z12	X13	Y13	Z13	X14	Y14	Z14	X15	Y15	Z15	X16	Y16	Z16	X17	Y17	Z17	X18	Y18	Z18	X19	Y19	Z19	X20	Y20	Z20	X21	Y21	Z21	X22	Y22	Z22	X23	Y23	Z23	X24	Y24	Z24	X25	Y25	Z25	X26	Y26	Z26	X27	Y27	Z27	X28	Y28	Z28	X29	Y29	Z29	X30	Y30	Z30	X31	Y31	Z31	X32	Y32	Z32	X33	Y33	Z33	X34	Y34	Z34	X35	Y35	Z35	X36	Y36	Z36	X37	Y37	Z37	X38	Y38	Z38	X39	Y39	Z39	X40	Y40	Z40	X41	Y41	Z41	X42	Y42	Z42	X43	Y43	Z43	X44	Y44	Z44	X45	Y45	Z45	X46	Y46	Z46
																																																																																																																																											
1	0	-2006.07166	471.43835	96.82275	-1582.35107	582.99432	363.46954	-1840.82617	1121.78687	496.24097	-1737.40161	1073.85083	409.18701	-1759.54053	1025.32446	449.27725	-1888.35205	1211.80774	517.09686	-1822.15515	1290.89136	473.42453	-1667.54993	1360.86218	367.18921	-1584.96179	1133.34363	97.0145	-1681.35022	1011.75391	425.89548	-1523.12524	1567.28052	288.39294	-1610.60669	1297.99792	222.15285	-1721.99158	918.06708	321.96066	-1658.80554	679.0921	388.84106	-1635.03333	1351.27722	59.23793	-1933.78723	619.12482	66.74885	-1661.98059	1547.52747	279.01385	-1694.58276	1403.96533	203.92384	-2198.92188	299.20636	110.84885	-2310.26416	178	153.48335	-2280.25024	35.2336	200.53395	-1655.33264	1547.79871	149.77718	-1635.60706	329.60968	361.68652	-1819.19983	1272.62097	265.58078	-2340.48291	208.83948	192.99138	-1686.42139	149.10577	318.54089	-1634.66113	1116.99524	219.12621	-1729.08472	130.79765	271.72006	-1547.84265	85.2	325.23706	-1835.59814	1106.85266	201.9552	-1689.86475	1183.63489	-42.41481	-1514.29126	1572.15759	156.69746	-1869.62634	972.20068	133.06635	-1863.1897	980.83569	299.28149	-1735.90906	889.66913	109.92739	-1635.62793	1060.97034	3.39608	-1567.7085	1065.03577	98.23331	-1508.55872	1114.99109	144.96115	-1728.3009	1091.50623	-77.39593	NaN	NaN	NaN	-1606.38403	1634.08459	208.44054	NaN	NaN	NaN	NaN	NaN	NaN	NaN	NaN	NaN	NaN	NaN	NaN	NaN	NaN	NaN
2	0.01	-1980.6626	483.30148	96.27697	-1549.56531	584.91888	364.51477	-1808.68372	1130.98865	496.15652	-1704.82751	1082.73401	409.54266	-1726.97571	1034.38477	449.78403	-1856.51794	1220.65417	517.04749	-1789.01465	1299.19104	473.58182	-1633.78809	1366.88489	367.91318	-1548.51514	1143.88525	99.11564	-1648.83325	1020.88623	425.98596	-1488.21521	1571.53186	291.56046	-1576.3634	1304.43445	224.16939	-1685.14136	925.39624	321.95975	-1626.47778	682.51721	389.58987	-1598.12634	1358.02673	62.15347	-1901.23926	627.55518	66.45295	-1627.24695	1553.10205	281.92984	-1659.44031	1410.22388	205.34113	-2166.35815	314.33511	106.39941	-2288.05469	185.93781	150.35187	-2273.0022	41.26613	199.03336	-1620.42908	1554.42981	152.71307	-1584.15991	325.92142	362.27808	-1782.65503	1280.27905	264.10962	-2310.64917	222.52019	189.01733	-1619.05212	142.20578	317.55307	-1600.37219	1123.35571	219.85426	-1661.00977	122.7289	271.08234	-1476.45068	82.59993	319.06946	-1798.95166	1112.84033	199.84193	-1650.20386	1192.00879	-41.56287	-1479.30981	1577.72168	159.96397	-1829.17273	976.5528	130.88678	-1824.90369	987.72253	296.43008	-1695.95129	894.56195	111.02668	-1596.39575	1070.60632	4.99081	-1530.32031	1075.98438	101.46569	-1472.70959	1127.52795	148.73038	-1688.25757	1099.41418	-77.91399	NaN	NaN	NaN	-1570.73389	1639.80225	212.30769	NaN	NaN	NaN	NaN	NaN	NaN	NaN	NaN	NaN	NaN	NaN	NaN	NaN	NaN	NaN
3	0.02	-1952.48352	493.6929	96.41914	-1516.76831	584.74841	365.44339	-1775.33447	1138.23389	496.27936	-1671.26587	1090.14709	409.61414	-1693.1665	1041.80518	449.86923	-1823.63025	1227.34192	517.36133	-1755.06555	1305.65332	474.08688	-1599.67566	1371.78296	368.49347	-1512.14453	1152.32446	101.15739	-1614.87671	1028.46533	425.44592	-1453.69678	1574.98975	294.51038	-1542.25378	1309.97412	225.68477	-1649.00562	931.49884	323.02603	-1594.87622	682.64661	390.42853	-1561.75916	1363.87512	64.95074	-1867.69775	635.26459	66.0209	-1592.8335	1557.38708	284.47296	-1624.74756	1415.30334	206.60211	-2145.53345	321.59695	105.96384	-2254.21436	199.23393	145.05658	-2254.12354	52.65697	195.36891	-1585.74475	1559.72913	155.22552	-1534.90662	321.87314	362.93936	-1746.55237	1287.25122	262.8891	-2279.14673	236.13623	183.90512	-1555.57227	136.40544	316.89401	-1559.03308	1129.58447	225.09267	-1597.24939	116.61994	271.22787	-1409.72449	79.81818	312.47635	-1762.00012	1118.49109	198.37117	-1611.50537	1199.63452	-40.70751	-1444.26563	1582.24268	162.88951	-1789.17078	980.22144	128.93173	-1787.39001	992.69409	294.06595	-1656.75098	899.20587	112.13995	-1558.27417	1078.24731	6.82703	-1493.89636	1084.55359	104.31264	-1437.68689	1136.95764	151.88266	-1648.88928	1106.12683	-78.29153	NaN	NaN	NaN	-1535.6499	1644.31287	215.69341	NaN	NaN	NaN	NaN	NaN	NaN	NaN	NaN	NaN	NaN	NaN	NaN	NaN	NaN	NaN
4	0.03	-1919.3053	500.629	96.95707	-1484.05701	582.41833	366.30875	-1740.97083	1143.26318	496.57916	-1636.72815	1095.84863	409.58154	-1658.26965	1047.22375	449.7652	-1789.88672	1231.77661	518.18933	-1720.5592	1310.15173	474.92172	-1565.26672	1375.60339	369.07986	-1475.69861	1158.76123	103.31056	-1580.07922	1034.24646	424.80188	-1419.49951	1578.23706	297.13757	-1507.79822	1314.40308	226.9147	-1613.3092	935.69611	324.29257	-1563.44385	680.08569	391.29181	-1526.10022	1368.90747	67.38553	-1829.88245	643.14587	64.46777	-1558.65051	1560.90967	286.57498	-1590.53235	1419.04382	207.66959	-2113.72852	330.35587	106.29522	-2230.03931	209.25475	143.66663	-2231.21802	63.11903	192.68871	-1551.17773	1564.07861	157.36012	-1488.03125	317.26166	363.85333	-1710.89783	1293.05627	261.88861	-2249.6582	248.6864	180.58789	-1496.646	131.31918	316.54233	-1522.43689	1134.07336	226.53903	-1538.2738	111.50357	271.72781	-1348.31982	76.93066	305.80865	-1724.85962	1123.6825	197.52083	-1573.46533	1206.0481	-39.88233	-1409.72241	1586.3407	165.41101	-1750.19543	983.90881	127.53679	-1750.6853	995.60419	292.54886	-1617.90356	903.11334	113.27982	-1520.66248	1083.98132	7.9731	-1458.24341	1090.7926	107.13863	-1402.71533	1143.60156	154.58646	-1610.71228	1111.55981	-78.83752	NaN	NaN	NaN	-1501.09033	1648.05603	218.54471	NaN	NaN	NaN	NaN	NaN	NaN	NaN	NaN	NaN	NaN	NaN	NaN	NaN	NaN	NaN
5	0.04	-1880.86121	502.49234	97.34271	-1452.73865	577.94421	366.99326	-1705.57581	1145.99902	497.14584	-1601.0415	1099.72205	409.64404	-1622.23523	1050.60522	449.33624	-1755.40381	1233.84692	519.45105	-1685.71008	1312.57349	476.1926	-1530.84167	1378.46912	369.81918	-1440.25208	1162.67712	105.0963	-1543.89905	1038.13599	423.83847	-1385.51794	1581.4552	299.39511	-1472.85974	1317.96313	228.10388	-1578.02551	938.37476	325.87415	-1531.51685	675.79047	392.59283	-1491.01086	1372.98694	69.19806	-1791.69312	645.78003	64.81554	-1524.63892	1563.9646	288.36655	-1556.47815	1421.66956	208.62808	-2078.55005	337.12723	105.59165	-2202.46436	221.52145	143.12746	-2202.44287	74.88857	190.18544	-1516.78015	1567.72607	159.18365	-1444.05566	312.42053	364.31851	-1675.24597	1297.02026	261.29562	-2223.02759	260.14767	179.71115	-1443.31348	126.8979	316.34442	-1485.81116	1137.61035	227.58517	-1485.93872	108.03074	273.18005	-1293.27673	74.25072	299.79498	-1687.77771	1128.04895	197.23436	-1536.07068	1210.82153	-39.24754	-1375.47339	1590.24023	167.64084	-1711.87573	986.73059	126.94757	-1714.42798	997.01495	291.98074	-1579.97473	905.9361	113.94821	-1484.22583	1087.72949	9.34387	-1423.27319	1094.59485	109.37744	-1367.98096	1147.31287	156.73676	-1572.97949	1115.57507	-79.26666	NaN	NaN	NaN	-1467.02759	1651.53418	220.88548	NaN	NaN	NaN	NaN	NaN	NaN	NaN	NaN	NaN	NaN	NaN	NaN	NaN	NaN	NaN
